<svg viewBox="0 0 776.47 173.44" xmlns="http://www.w3.org/2000/svg" xmlns:xlink="http://www.w3.org/1999/xlink"><linearGradient id="a" gradientTransform="matrix(1 0 0 -1 0 176)" gradientUnits="userSpaceOnUse" x1="91.76" x2="91.76" y1="186.78" y2="-3.36"><stop offset="0" stop-color="#adff2f"/><stop offset="1"/></linearGradient><linearGradient id="b" x1="277.74" x2="277.74" xlink:href="#a"/><linearGradient id="c" x1="438.77" x2="438.77" xlink:href="#a"/><linearGradient id="d" x1="592.57" x2="592.57" xlink:href="#a"/><linearGradient id="e" x1="728.91" x2="728.91" xlink:href="#a"/><path d="m144.49 171.12h-20.94l-31.53-136.22h-.52l-31.79 136.22h-20.94l-38.77-168.79h19.39l29.98 145.01h.52l33.08-145.01h17.58l32.57 145.27h.52l30.76-145.27h19.13l-39.03 168.79z" fill="url(#a)"/><path d="m330.6 54.54v64.1c0 34.12-18.61 54.8-52.73 54.8s-52.99-20.68-52.99-54.54v-64.1c0-34.12 18.61-54.8 52.99-54.8s52.73 20.68 52.73 54.54zm-19.13.26c0-25.59-11.11-38.51-33.6-38.51s-33.86 12.92-33.86 38.51v64.1c0 25.59 11.11 38.51 33.86 38.51s33.6-12.92 33.6-38.77v-63.85z" fill="url(#b)"/><path d="m430.89 97.19h-24.56v73.93h-19.13v-168.79h47.82c30.76 0 45.49 16.8 45.49 45.75 0 26.11-11.11 41.62-31.28 45.75l41.1 77.29h-21.45l-38-73.93zm-24.56-15.51h27.66c20.94 0 27.66-11.89 27.66-32.31s-6.98-30.76-27.14-30.76h-28.17v63.07z" fill="url(#c)"/><path d="m623.71 171.12-47.3-79.87-18.61 24.3v55.57h-18.87v-168.79h18.87v90.99h.52l60.74-90.99h22.49l-52.21 75.48 56.87 93.31z" fill="url(#d)"/><path d="m775.95 32.05-13.7 6.2c-4.65-14.22-16.28-22.49-31.79-22.49-19.64 0-27.4 10.86-27.4 25.59 0 39.81 73.41 31.79 73.41 85.82 0 29.73-18.35 46.27-47.04 46.27-23.01 0-41.88-13.7-48.08-37.22l14.99-5.69c5.17 18.09 18.09 26.88 32.83 26.88 18.87 0 29.21-9.31 29.21-28.43 0-41.87-74.19-32.31-74.19-86.85 0-24.3 16.54-42.13 44.98-42.13 23.52 0 39.81 12.41 46.79 32.05z" fill="url(#e)"/></svg>